<?xml version="1.0" encoding="UTF-8" standalone="no"?>
<!--part of the matt icon theme by sixsixfive released under CC0 (https://creativecommons.org/publicdomain/zero/1.0/) on openclipart-->
<svg xmlns="http://www.w3.org/2000/svg" xmlns:xlink="http://www.w3.org/1999/xlink" viewBox="0 0 128 128">
 <defs id="0">
  <linearGradient id="2">
   <stop id="P" stop-color="#eee"/>
   <stop id="Q" offset="1" stop-color="#eee" stop-opacity="0"/>
  </linearGradient>
  <linearGradient id="3">
   <stop id="R" stop-color="#eee"/>
   <stop id="S" offset="1" stop-color="#ddd"/>
  </linearGradient>
  <linearGradient id="4">
   <stop id="T" stop-color="#323232"/>
   <stop id="U" offset="1" stop-color="#3f3f3f"/>
  </linearGradient>
  <linearGradient id="5">
   <stop id="V" stop-color="#090909"/>
   <stop id="W" offset="1" stop-color="#0a0a0a" stop-opacity="0.431"/>
  </linearGradient>
  <linearGradient id="6">
   <stop id="X" stop-color="#bbb"/>
   <stop id="Y" offset="1" stop-color="#bbb" stop-opacity="0"/>
  </linearGradient>
  <filter color-interpolation-filters="sRGB" id="7">
   <feGaussianBlur id="Z" stdDeviation="0.14197"/>
  </filter>
  <radialGradient cx="10.347" cy="17.05" r="10" id="8" xlink:href="#3" gradientUnits="userSpaceOnUse" gradientTransform="matrix(7.656084,6.2717561,-1.6668856,2.034807,-10.885614,-116.55231)"/>
  <linearGradient y1="1.679" x2="0" y2="13.96" id="9" xlink:href="#5" gradientUnits="userSpaceOnUse" gradientTransform="matrix(4.3085818,0,0,4.3085818,-4.6680224,-101.47149)"/>
  <radialGradient cx="12.67" cy="3.598" r="7.422" id="A" xlink:href="#6" gradientUnits="userSpaceOnUse" gradientTransform="matrix(5.3595996,9.9399137,-11.376325,6.1341128,24.990355,-225.62527)"/>
  <radialGradient cx="27.993" cy="27.699" r="14.25" id="B" xlink:href="#4" gradientUnits="userSpaceOnUse" gradientTransform="matrix(3.2303553,-2.8510842,4.9412608,5.5985815,-111.35295,-57.784444)"/>
  <radialGradient cx="65.66" cy="-126.49" r="62.27" id="C" xlink:href="#2" gradientUnits="userSpaceOnUse" gradientTransform="matrix(1.4415477,0.00425417,-0.00292875,0.9924281,-31.029384,-0.3824133)"/>
 </defs>
 <g transform="translate(0,96)" id="1">
  <g transform="matrix(4.3085818,0,0,4.3085818,-4.6680224,-100.17891)" id="D" filter="url(#7)">
   <path d="m 2.6875,1.6875 c -0.554,0 -1,0.446 -1,1 l 0,26.28125 c 0,0.554 0.446,1 1,1 l 26.5,0 c 0.554,0 1,-0.446 1,-1 l 0,-25.71875 -1.5625,-1.5625 -25.9375,0 0,0 z m 0.09375,25.75 1.28125,0 c 0.0554,0 0.125,0.03835 0.125,0.09375 l 0,1.21875 c -10e-6,0.05541 -0.0696,0.09375 -0.125,0.09375 l -1.28125,0 c -0.05541,10e-6 -0.125,-0.03835 -0.125,-0.09375 l 0,-1.21875 c 0,-0.05541 0.0696,-0.09375 0.125,-0.09375 l 0,0 z m 25,0.15625 1.3125,0 c 0.0554,0 0.09375,0.03835 0.09375,0.09375 l 0,1.25 c -10e-6,0.05541 -0.03835,0.09375 -0.09375,0.09375 l -1.3125,0 C 27.72584,29.03126 27.6875,28.9929 27.6875,28.9375 l 0,-1.25 c 0,-0.05541 0.03835,-0.09375 0.09375,-0.09375 z" id="a" stroke-width="1.75"/>
   <path d="m 10.1875,1.8042102 c -0.3324,0 -0.625,0.26134 -0.625,0.59375 l 0,10.5312508 c 0,0.3324 0.29259,0.625 0.625,0.625 l 13.59375,0 c 0.3324,0 0.625,-0.29259 0.625,-0.625 l 0,-10.5312508 c 0,-0.3324 -0.29261,-0.59375 -0.625,-0.59375 l -13.59375,0 z m 9.78142,0.375 2.125,0 c 0.3324,0 0.59375,0.26135 0.59375,0.59375 l 0,9.6296008 c 0,0.33241 -0.26135,0.59375 -0.59375,0.59375 l -2.125,0 c -0.33241,0 -0.59375,-0.26135 -0.59375,-0.59375 l 0,-9.6296008 c 0,-0.33241 0.26135,-0.59375 0.59375,-0.59375 z" id="b" stroke-width="0.125"/>
   <path d="m 5.21875,1.6792102 0,11.6562508 c 0,0.3324 0.2345526,0.625 0.5328905,0.625 l 18.4828875,0 c 0.298329,0 0.532891,-0.2926 0.532891,-0.625 l 0,-11.6562508 -0.308516,0 0,11.3437508 c 9e-6,0.33241 -0.234561,0.59375 -0.53289,0.59375 l -17.7817163,0 c -0.2983379,0 -0.5609374,-0.26135 -0.5609374,-0.59375 l 0,-11.3437508 -0.3646093,0 0,0 z" id="c" opacity="0.486" stroke-width="1.75"/>
   <path d="m 7.25,17.53125 c -0.5539997,0 -1,0.446001 -1,1 l 0,3.1875 0,7.03125 0,1.21875 20,0 0,-1.21875 0,-7.03125 0,-3.1875 c 0,-0.553999 -0.446,-1 -1,-1 l -18,0 z" id="d" stroke-width="1.75"/>
   <rect width="16.07" height="0.209" x="8.205" y="19.684" id="e" stroke-width="1.75"/>
   <rect width="16.07" height="0.209" x="8.205" y="21.684" id="f" stroke-width="1.75"/>
   <rect width="16.07" height="0.209" x="8.205" y="23.684" id="g" stroke-width="1.75"/>
   <rect width="16.07" height="0.209" x="8.205" y="25.684" id="h" stroke-width="1.75"/>
   <rect width="16.07" height="0.209" x="8.205" y="27.684" id="i" stroke-width="1.75"/>
   <rect width="16.07" height="0.209" x="8.205" y="27.684" id="j" stroke-width="1.75"/>
  </g>
  <path d="m 6.9112912,-94.200758 c -2.3869543,0 -4.3085818,1.921627 -4.3085818,4.308582 l 0,113.234915 c 0,2.386954 1.9216275,4.308582 4.3085818,4.308582 l 114.1774188,0 c 2.38695,0 4.30858,-1.921628 4.30858,-4.308582 l 0,-110.811338 -6.73216,-6.732159 -111.7538388,0 0,0 z m 0.4039295,110.945981 5.5203703,0 c 0.238696,0 0.538573,0.165234 0.538573,0.40393 l 0,5.251084 c -4.3e-5,0.238738 -0.299877,0.403929 -0.538573,0.403929 l -5.5203703,0 C 7.0764822,22.804209 6.776648,22.638932 6.776648,22.400237 l 0,-5.251084 c 0,-0.238739 0.2998773,-0.40393 0.5385727,-0.40393 l 0,0 z m 107.7145493,0.673216 5.65501,0 c 0.23869,0 0.40393,0.165234 0.40393,0.40393 l 0,5.385727 c -4e-5,0.238738 -0.16524,0.403929 -0.40393,0.403929 l -5.65501,0 c -0.23874,4.3e-5 -0.40393,-0.165234 -0.40393,-0.403929 l 0,-5.385727 c 0,-0.238739 0.16523,-0.40393 0.40393,-0.40393 z" id="E" fill="url(#B)" stroke-width="1.75"/>
  <path d="m 39.225655,-93.697903 c -1.432173,0 -2.692864,1.126005 -2.692864,2.558221 l 0,45.374755 c 0,1.432173 1.260648,2.692864 2.692864,2.692864 l 58.569784,0 c 1.432172,0 2.692861,-1.260648 2.692861,-2.692864 l 0,-45.374755 c 0,-1.432173 -1.260732,-2.558221 -2.692861,-2.558221 l -58.569784,0 z m 42.144048,1.615718 9.155736,0 c 1.432173,0 2.558221,1.126048 2.558221,2.558221 l 0,41.489923 c 0,1.432215 -1.126048,2.55822 -2.558221,2.55822 l -9.155736,0 c -1.432216,0 -2.558221,-1.126048 -2.558221,-2.55822 l 0,-41.489923 c 0,-1.432216 1.126048,-2.558221 2.558221,-2.558221 z" id="F" fill="url(#A)" stroke-width="0.125"/>
  <path d="m 17.817389,-94.236475 0,50.22191 c 0,1.432172 1.010589,2.692863 2.296002,2.692863 l 79.635033,0 c 1.285376,0 2.296006,-1.260691 2.296006,-2.692863 l 0,-50.22191 -1.32927,0 0,48.875478 c 4e-5,1.432215 -1.010623,2.55822 -2.295998,2.55822 l -76.613979,0 c -1.285414,0 -2.416845,-1.126048 -2.416845,-2.55822 l 0,-48.875478 -1.570949,0 0,0 z" id="G" opacity="0.486" fill="url(#9)" stroke-width="1.75"/>
  <path d="m 26.569196,-25.936665 c -2.386953,0 -4.308582,1.921631 -4.308582,4.308581 l 0,13.733605 0,30.294716 0,5.251084 86.171636,0 0,-5.251084 0,-30.294716 0,-13.733605 c 0,-2.38695 -1.92163,-4.308581 -4.30858,-4.308581 l -77.554474,0 z" id="H" fill="url(#8)" stroke-width="1.75"/>
  <rect width="69.24" height="0.899" x="30.685" y="-16.663" id="I" fill="#555" stroke-width="1.75"/>
  <rect width="69.24" height="0.899" x="30.685" y="-8.05" id="J" fill="#555" stroke-width="1.75"/>
  <rect width="69.24" height="0.899" x="30.685" y="0.571" id="K" fill="#555" stroke-width="1.75"/>
  <rect width="69.24" height="0.899" x="30.685" y="9.188" id="L" fill="#555" stroke-width="1.75"/>
  <rect width="69.24" height="0.899" x="30.685" y="17.805" id="M" fill="#555" stroke-width="1.75"/>
  <rect width="69.24" height="0.899" x="30.685" y="17.805" id="N" fill="#555" stroke-width="1.75"/>
  <path d="m 6.9112912,-94.200758 c -2.3869543,0 -4.3085818,1.921627 -4.3085818,4.308582 l 0,113.234915 c 0,2.386954 1.9216275,4.308582 4.3085818,4.308582 l 114.1774188,0 c 2.38695,0 4.30858,-1.921628 4.30858,-4.308582 l 0,-110.811338 -6.73216,-6.732159 -111.7538388,0 0,0 z m 0.4039295,110.945981 5.5203703,0 c 0.238696,0 0.538573,0.165234 0.538573,0.40393 l 0,5.251084 c -4.3e-5,0.238738 -0.299877,0.403929 -0.538573,0.403929 l -5.5203703,0 C 7.0764822,22.804209 6.776648,22.638932 6.776648,22.400237 l 0,-5.251084 c 0,-0.238739 0.2998773,-0.40393 0.5385727,-0.40393 l 0,0 z m 107.7145493,0.673216 5.65501,0 c 0.23869,0 0.40393,0.165234 0.40393,0.40393 l 0,5.385727 c -4e-5,0.238738 -0.16524,0.403929 -0.40393,0.403929 l -5.65501,0 c -0.23874,4.3e-5 -0.40393,-0.165234 -0.40393,-0.403929 l 0,-5.385727 c 0,-0.238739 0.16523,-0.40393 0.40393,-0.40393 z" id="O" fill="none" stroke="url(#C)" stroke-width="1.75"/>
 </g>
</svg>